<svg width="25" height="25" viewBox="0 0 25 25" fill="none" xmlns="http://www.w3.org/2000/svg">
<g clip-path="url(#clip0_52402_108)">
<path d="M10.1074 12.4999C10.1074 13.8214 11.1786 14.8925 12.5 14.8925C13.8214 14.8925 14.8926 13.8214 14.8926 12.4999C14.8926 11.1785 13.8214 10.1074 12.5 10.1074C11.1786 10.1074 10.1074 11.1785 10.1074 12.4999Z" fill="white"/>
<path d="M6.90457 8.26673C7.01958 7.95507 7.20307 7.67297 7.44149 7.44142C7.67304 7.203 7.95495 7.01952 8.2668 6.9045C8.51971 6.80627 8.89966 6.68935 9.59946 6.6575C10.3565 6.62298 10.5835 6.61554 12.5 6.61554C14.4167 6.61554 14.6436 6.62279 15.4005 6.65731C16.1003 6.68935 16.4804 6.80627 16.7331 6.9045C17.045 7.01952 17.3271 7.203 17.5584 7.44142C17.7969 7.67297 17.9804 7.95488 18.0956 8.26673C18.1938 8.51965 18.3107 8.89978 18.3426 9.59959C18.3771 10.3564 18.3845 10.5834 18.3845 12.5001C18.3845 14.4166 18.3771 14.6436 18.3426 15.4006C18.3107 16.1004 18.1938 16.4803 18.0956 16.7333C17.9804 17.0451 17.7971 17.327 17.5586 17.5586C17.3271 17.797 17.0452 17.9805 16.7333 18.0955C16.4804 18.1939 16.1003 18.3108 15.4005 18.3427C14.6436 18.3772 14.4169 18.3845 12.5002 18.3845C10.5833 18.3845 10.3563 18.3772 9.59966 18.3427C8.89985 18.3108 8.51971 18.1939 8.2668 18.0955C7.64081 17.854 7.14604 17.3593 6.90457 16.7333C6.80634 16.4803 6.68942 16.1004 6.65738 15.4006C6.62286 14.6436 6.61561 14.4166 6.61561 12.5001C6.61561 10.5834 6.62286 10.3564 6.65738 9.59959C6.68923 8.89978 6.80615 8.51965 6.90457 8.26673ZM12.5 16.1857C14.5357 16.1857 16.1859 14.5356 16.1859 12.4999C16.1859 10.4642 14.5357 8.81414 12.5 8.81414C10.4644 8.81414 8.81421 10.4642 8.81421 12.4999C8.81421 14.5356 10.4644 16.1857 12.5 16.1857ZM8.66849 9.52978C9.14418 9.52978 9.52985 9.14411 9.52985 8.66842C9.52985 8.19273 9.14418 7.80706 8.66849 7.80706C8.19279 7.80706 7.80713 8.19273 7.80713 8.66842C7.80732 9.14411 8.19279 9.52978 8.66849 9.52978Z" fill="white"/>
<path d="M12.5 -6.10352e-05C19.4025 -6.10352e-05 25 5.59743 25 12.4999C25 19.4024 19.4025 24.9999 12.5 24.9999C5.5975 24.9999 0 19.4024 0 12.4999C0 5.59743 5.5975 -6.10352e-05 12.5 -6.10352e-05ZM5.36556 15.4592C5.40028 16.2233 5.52177 16.7449 5.69916 17.2016C6.07204 18.1657 6.83422 18.9279 7.79839 19.3008C8.25481 19.4782 8.77666 19.5995 9.54056 19.6344C10.306 19.6693 10.5505 19.6777 12.4998 19.6777C14.4493 19.6777 14.6936 19.6693 15.4593 19.6344C16.2231 19.5995 16.745 19.4782 17.2014 19.3008C17.6805 19.1205 18.1143 18.8381 18.4729 18.4728C18.8379 18.1144 19.1204 17.6805 19.3007 17.2016C19.478 16.7451 19.5995 16.2233 19.6342 15.4594C19.6695 14.6938 19.6777 14.4492 19.6777 12.4999C19.6777 10.5506 19.6695 10.3061 19.6344 9.54069C19.5997 8.7766 19.4784 8.25494 19.301 7.79832C19.1208 7.31939 18.8381 6.88547 18.4729 6.52708C18.1145 6.16182 17.6805 5.87934 17.2016 5.6991C16.745 5.52171 16.2233 5.40041 15.4593 5.3655C14.6938 5.3306 14.4493 5.3222 12.5 5.3222C10.5507 5.3222 10.3062 5.3306 9.54075 5.36569C8.77666 5.40041 8.255 5.52171 7.79839 5.69891C7.31945 5.87915 6.88553 6.16182 6.52695 6.52708C6.16188 6.88566 5.87921 7.31939 5.69916 7.79832C5.52158 8.25494 5.40028 8.7766 5.36537 9.54069C5.33047 10.3061 5.32227 10.5506 5.32227 12.4999C5.32227 14.4492 5.33047 14.6938 5.36556 15.4592Z" fill="white"/>
</g>
<defs>
<clipPath id="clip0_52402_108">
<rect width="25" height="25" fill="white" transform="matrix(-1 0 0 1 25 -6.10352e-05)"/>
</clipPath>
</defs>
</svg>
