<svg width="25" height="25" viewBox="0 0 25 25" fill="none" xmlns="http://www.w3.org/2000/svg">
<g clip-path="url(#clip0_52402_105)">
<path d="M12.5 -6.10352e-05C5.59815 -6.10352e-05 0 5.59809 0 12.4999C0 19.4018 5.59815 24.9999 12.5 24.9999C19.4018 24.9999 25 19.4018 25 12.4999C25 5.59809 19.4018 -6.10352e-05 12.5 -6.10352e-05ZM18.8394 13.8547C19.4274 14.4171 20.0409 14.9539 20.5521 15.593C20.7822 15.8742 21.0122 16.1553 21.1656 16.4877C21.3957 16.9478 21.1912 17.459 20.7822 17.4846H18.226C17.5613 17.5357 17.0501 17.2801 16.59 16.82C16.2321 16.4621 15.8998 16.0787 15.5675 15.6952C15.4397 15.5418 15.2863 15.3885 15.1073 15.2862C14.7495 15.0562 14.4427 15.1328 14.2638 15.4907C14.0593 15.8742 14.0082 16.2832 13.9826 16.6922C13.957 17.3056 13.7781 17.459 13.1646 17.4846C11.8609 17.5357 10.6339 17.3568 9.50919 16.6922C8.51226 16.1042 7.71983 15.3118 7.05521 14.3915C5.72597 12.6022 4.72903 10.6339 3.80879 8.61445C3.60429 8.15433 3.75767 7.92427 4.26891 7.8987C5.11247 7.87314 5.93046 7.87314 6.77402 7.8987C7.10633 7.8987 7.33639 8.1032 7.46421 8.40995C7.92433 9.50913 8.46114 10.5828 9.15132 11.5541C9.33026 11.8097 9.53475 12.0654 9.79038 12.2699C10.0971 12.4744 10.3016 12.3977 10.455 12.0654C10.5317 11.8609 10.5828 11.6308 10.6084 11.4007C10.6851 10.6339 10.6851 9.867 10.5572 9.10013C10.4806 8.58889 10.2249 8.28214 9.73925 8.17989C9.48363 8.12877 9.53476 8.05208 9.637 7.8987C9.8415 7.66864 10.046 7.51527 10.4294 7.51527H13.318C13.7781 7.61752 13.8804 7.79645 13.9315 8.25658V11.4774C13.9315 11.6564 14.0082 12.1932 14.3405 12.2954C14.5961 12.3721 14.775 12.1676 14.9284 12.0142C15.6186 11.2729 16.1043 10.4038 16.5644 9.50913C16.7689 9.10013 16.9223 8.69114 17.1012 8.28214C17.229 7.97539 17.408 7.82202 17.7658 7.82202H20.5521C20.6288 7.82202 20.7055 7.82202 20.8078 7.84758C21.2679 7.92427 21.3957 8.12876 21.2679 8.58889C21.0378 9.30463 20.6033 9.91813 20.1687 10.5061C19.7086 11.1451 19.1973 11.7586 18.7372 12.4232C18.2771 13.0367 18.3026 13.3435 18.8394 13.8547Z" fill="white"/>
</g>
<defs>
<clipPath id="clip0_52402_105">
<rect width="25" height="25" fill="white"/>
</clipPath>
</defs>
</svg>
